<svg xmlns="http://www.w3.org/2000/svg" width="26" height="20" viewBox="0 0 26 20">
  <g fill="none" fill-rule="evenodd" transform="translate(.866 -3)">
    <rect width="25" height="25" y=".5"/>
    <g stroke="#FFF" stroke-linecap="round" stroke-linejoin="round" stroke-width="2" transform="translate(1 4)">
      <polyline points="0 0 5.273 0 7.881 10.421 20.411 10.421 23 2.073 10.407 2.073"/>
      <path d="M11 16.1052632C11 15.0588859 10.1045093 14.2105263 9 14.2105263 7.89549072 14.2105263 7 15.0588859 7 16.1052632 7 17.1516404 7.89549072 18 9 18 10.1045093 18 11 17.1516404 11 16.1052632zM21 16.1052632C21 15.0588859 20.1045093 14.2105263 19 14.2105263 17.8954907 14.2105263 17 15.0588859 17 16.1052632 17 17.1516404 17.8954907 18 19 18 20.1045093 18 21 17.1516404 21 16.1052632z"/>
    </g>
  </g>
</svg>
