<?xml version="1.0" encoding="UTF-8"?>
<svg width="25px" height="20px" viewBox="0 0 25 20" version="1.1" xmlns="http://www.w3.org/2000/svg" xmlns:xlink="http://www.w3.org/1999/xlink">
    <!-- Generator: Sketch 46.2 (44496) - http://www.bohemiancoding.com/sketch -->
    <title>Icon/Shopping Cart</title>
    <desc>Created with Sketch.</desc>
    <defs></defs>
    <g id="Symbols" stroke="none" stroke-width="1" fill="none" fill-rule="evenodd">
        <g id="Icon/Shopping-Cart" stroke="#272525" stroke-width="2">
            <g id="icon-cart" transform="translate(0.000000, 1.000000)">
                <polyline id="Stroke-1" points="0 0 5.27306617 0 7.88101895 10.4210526 20.411441 10.4210526 23 2.07272115 10.4073137 2.07272115"></polyline>
                <path d="M11,16.1052632 C11,15.0588859 10.1045093,14.2105263 9,14.2105263 C7.89549072,14.2105263 7,15.0588859 7,16.1052632 C7,17.1516404 7.89549072,18 9,18 C10.1045093,18 11,17.1516404 11,16.1052632 Z" id="Stroke-3" stroke-linecap="round" stroke-linejoin="round"></path>
                <path d="M21,16.1052632 C21,15.0588859 20.1045093,14.2105263 19,14.2105263 C17.8954907,14.2105263 17,15.0588859 17,16.1052632 C17,17.1516404 17.8954907,18 19,18 C20.1045093,18 21,17.1516404 21,16.1052632 Z" id="Stroke-5" stroke-linecap="round" stroke-linejoin="round"></path>
            </g>
        </g>
    </g>
</svg>