<?xml version="1.0" encoding="UTF-8"?>
<svg width="28px" height="44px" viewBox="0 0 28 44" version="1.1" xmlns="http://www.w3.org/2000/svg" xmlns:xlink="http://www.w3.org/1999/xlink">
    <!-- Generator: Sketch 42 (36781) - http://www.bohemiancoding.com/sketch -->
    <title>logomarkweb</title>
    <desc>Created with Sketch.</desc>
    <defs></defs>
    <g id="Symbols" stroke="none" stroke-width="1" fill="none" fill-rule="evenodd">
        <g id="nav-header-1440" transform="translate(-164.000000, -28.000000)" fill="#E2231A">
            <g id="nav-header-desktop-1440">
                <g id="logo" transform="translate(163.000000, 28.000000)">
                    <g id="logomark">
                        <path d="M14.5936364,43.1077167 C11.3754545,43.1077167 8.25545455,41.9527167 5.80636364,39.8572167 C3.38636364,37.78555 1.75363636,34.9163833 1.20818182,31.77955 C1.12272727,31.2918833 1.44636364,30.8262167 1.93,30.74005 C2.41363636,30.6557167 2.87545455,30.98205 2.96090909,31.4697167 C3.43363636,34.1958833 4.85363636,36.6892167 6.95727273,38.48955 C9.08636364,40.3118833 11.7972727,41.3147167 14.5936364,41.3147167 C17.75,41.3147167 20.7172727,40.0753833 22.9481818,37.82405 C25.1809091,35.57455 26.41,32.58255 26.41,29.3998833 C26.41,26.16955 25.2463636,23.34805 23.0463636,21.2397167 C20.9281818,19.2083833 17.9681818,17.90855 14.4863636,17.47955 L14.4809091,17.47955 C12.2372727,17.1807167 10.8463636,15.7342167 10.8463636,13.70655 C10.8463636,11.6238833 12.5263636,9.92805 14.5936364,9.92805 C16.4172727,9.92805 17.9681818,11.24255 18.2827273,13.05205 C18.3681818,13.54155 18.0427273,14.0053833 17.5590909,14.0897167 C17.0772727,14.1758833 16.6154545,13.84955 16.53,13.3618833 C16.3663636,12.4103833 15.55,11.72105 14.5936364,11.72105 C13.5081818,11.72105 12.6245455,12.61205 12.6245455,13.70655 C12.6245455,15.19705 13.9263636,15.5948833 14.7063636,15.6993833 C18.57,16.1778833 21.8772727,17.6427167 24.2718182,19.9398833 C26.8336364,22.39655 28.1881818,25.6672167 28.1881818,29.3998833 C28.1881818,33.0628833 26.7736364,36.50405 24.2063636,39.0927167 C21.6390909,41.6813833 18.2263636,43.1077167 14.5936364,43.1077167" id="Fill-29"></path>
                        <path d="M14.5936364,33.1793 C12.7718182,33.1793 11.2190909,31.8648 10.9045455,30.0553 C10.8209091,29.5676333 11.1445455,29.1019667 11.6281818,29.0176333 C12.1118182,28.9314667 12.5718182,29.2578 12.6572727,29.7454667 C12.8227273,30.6969667 13.6372727,31.3863 14.5936364,31.3863 C15.6790909,31.3863 16.5627273,30.4953 16.5627273,29.4008 C16.5627273,27.9103 15.2609091,27.5124667 14.4809091,27.4079667 C10.6172727,26.9313 7.31181818,25.4646333 4.91545455,23.1674667 C2.35363636,20.7126333 0.999090909,17.4419667 0.999090909,13.7074667 C0.999090909,10.0463 2.41363636,6.6033 4.98090909,4.01463333 C7.54818182,1.42596667 10.9627273,-0.000366666667 14.5936364,-0.000366666667 C17.8118182,-0.000366666667 20.9318182,1.15463333 23.3809091,3.25013333 C25.8027273,5.3218 27.4336364,8.19096667 27.9790909,11.3296333 C28.0645455,11.8173 27.7409091,12.2811333 27.2572727,12.3654667 C26.7736364,12.4516333 26.3118182,12.1253 26.2281818,11.6376333 C25.7536364,8.91146667 24.3336364,6.41996667 22.23,4.6178 C20.1027273,2.7973 17.39,1.79446667 14.5936364,1.79446667 C11.4372727,1.79446667 8.47,3.0338 6.23909091,5.2833 C4.00818182,7.5328 2.77727273,10.5248 2.77727273,13.7074667 C2.77727273,16.9378 3.94090909,19.7593 6.14090909,21.8676333 C8.25909091,23.8971333 11.2190909,25.1988 14.7027273,25.6278 L14.71,25.6296333 C16.95,25.9284667 18.3427273,27.3731333 18.3427273,29.4008 C18.3427273,31.4834667 16.6609091,33.1793 14.5936364,33.1793" id="Fill-30"></path>
                    </g>
                </g>
            </g>
        </g>
    </g>
</svg>