<svg id="Layer_1" data-name="Layer 1" xmlns="http://www.w3.org/2000/svg" viewBox="0 0 1145.18 406.77"><defs><style>.cls-1{fill:#1f2238;}</style></defs><path class="cls-1" d="M361.26,185.83a30,30,0,0,0-4.68-5.8,12,12,0,0,0-8.37-3.06,11,11,0,0,0-8.81,3.67,10.38,10.38,0,0,0-2.68,6.92c0,4.07,3.24,7.36,9.65,9.87l7.25,2.74q11.55,4.43,15.56,10.87A18.48,18.48,0,0,1,372,221.25a22.52,22.52,0,0,1-7.87,17.51,26.62,26.62,0,0,1-32.18,1.9c-5-3.52-8.42-9.31-10.26-17.4l11.54-3c.17.78.34,1.39.45,1.78A19.93,19.93,0,0,0,337,229.5a12.23,12.23,0,0,0,9.93,4.58,12.72,12.72,0,0,0,9.87-4.3,12.19,12.19,0,0,0,3.23-8.42,8.49,8.49,0,0,0-1.61-5.24c-1.51-2-4.91-4-10.1-6l-6.91-2.68Q324.93,201.06,325,187.5a19.88,19.88,0,0,1,6.92-15.61,24.45,24.45,0,0,1,16.67-6,23.2,23.2,0,0,1,17.8,7.64,40.77,40.77,0,0,1,4.51,6.19Z"/><path class="cls-1" d="M427.81,243.62H416.44v-3.69a17.85,17.85,0,0,1-12.89,5.25,20.59,20.59,0,0,1-14.16-5.25c-4.91-4.29-6.87-10-6.87-19.68V193H393.9v26.38q0,7.53,1.84,10.88c1.62,3,4.58,4.46,8.93,4.46s8.25-2,9.87-5c1.28-2.29,1.9-6.08,1.9-11.44V193h11.37Z"/><path class="cls-1" d="M440.07,193h11.38v4.41c5.13-4,10.32-6,15.62-6a24.15,24.15,0,0,1,12.21,3.4,25.87,25.87,0,0,1,9.82,9.82,27.12,27.12,0,0,1,3.63,13.72,25.83,25.83,0,0,1-8.87,20.13,24.6,24.6,0,0,1-16.79,6.7c-5.25,0-10.43-2-15.62-6v31.07H440.07Zm15.4,13.39c-2.74,2.95-4.08,7-4.08,12,0,5.57,1.68,9.87,5.08,12.88a14.2,14.2,0,0,0,9.82,3.57,15.12,15.12,0,0,0,7.69-2.12c4.86-3,7.26-7.75,7.26-14.39,0-5.63-1.74-9.93-5.14-12.94a14.45,14.45,0,0,0-9.92-3.68A14,14,0,0,0,455.47,206.36Z"/><path class="cls-1" d="M510.81,222.64a17.3,17.3,0,0,0,3,6.92c2.62,3.51,6.36,5.3,11.32,5.3a15.09,15.09,0,0,0,12.77-6.53l1-1.61,9.81,4.07c-5.69,9.59-13.55,14.39-23.65,14.39a24.32,24.32,0,0,1-19.13-8.42,27.27,27.27,0,0,1-6.8-18.52c0-8.31,2.9-15.17,8.7-20.47a23.64,23.64,0,0,1,16.51-6.42,23.18,23.18,0,0,1,18,8,25.23,25.23,0,0,1,5.47,10.32,35.17,35.17,0,0,1,1.34,9.7c0,.56,0,1.62-.06,3.23Zm27-8.81a20.74,20.74,0,0,0-3.63-7.81,11.75,11.75,0,0,0-9.76-4.57c-6.92,0-12,4.57-13.61,12.38Z"/><path class="cls-1" d="M558.68,193h11.38V197a22.22,22.22,0,0,1,5.41-3.45,15,15,0,0,1,5.52-.84,41.07,41.07,0,0,1,4.18.22v10.21c-1.84-.06-3.17-.11-4-.11-4.57,0-7.64,1.5-9.25,4.52-1.29,2.39-1.9,6.24-1.9,11.65v24.38H558.68Z"/><path class="cls-1" d="M592.25,193h11.38v4.41c5.13-4,10.32-6,15.62-6a24.15,24.15,0,0,1,12.21,3.4,25.87,25.87,0,0,1,9.82,9.82,27.12,27.12,0,0,1,3.63,13.72A25.83,25.83,0,0,1,636,238.48a24.6,24.6,0,0,1-16.79,6.7c-5.25,0-10.43-2-15.62-6v31.07H592.25Zm15.4,13.39c-2.74,2.95-4.07,7-4.07,12,0,5.57,1.67,9.87,5.07,12.88a14.2,14.2,0,0,0,9.82,3.57,15.16,15.16,0,0,0,7.7-2.12c4.85-3,7.25-7.75,7.25-14.39,0-5.63-1.73-9.93-5.14-12.94a14.45,14.45,0,0,0-9.92-3.68A14,14,0,0,0,607.65,206.36Z"/><path class="cls-1" d="M663,222.64a17.3,17.3,0,0,0,3,6.92c2.62,3.51,6.36,5.3,11.32,5.3A15.09,15.09,0,0,0,690,228.33l1-1.61,9.81,4.07q-8.54,14.39-23.64,14.39a24.32,24.32,0,0,1-19.14-8.42,27.27,27.27,0,0,1-6.8-18.52c0-8.31,2.9-15.17,8.7-20.47a23.64,23.64,0,0,1,16.51-6.42,23.18,23.18,0,0,1,18,8A25.23,25.23,0,0,1,700,209.71a35.17,35.17,0,0,1,1.34,9.7c0,.56,0,1.62-.06,3.23Zm27-8.81a20.74,20.74,0,0,0-3.63-7.81,11.75,11.75,0,0,0-9.76-4.57c-6.91,0-12,4.57-13.61,12.38Z"/><path class="cls-1" d="M760.29,243.62H748.91v-4.41c-5.13,4-10.32,6-15.62,6a24.07,24.07,0,0,1-12.21-3.41,26,26,0,0,1-9.82-9.81,27.11,27.11,0,0,1-3.62-13.72,25.83,25.83,0,0,1,8.87-20.14,24.6,24.6,0,0,1,16.78-6.69c5.25,0,10.43,2,15.62,6v-29.9h11.38ZM723.2,206.47c-2.74,3-4.07,6.86-4.07,11.77,0,5.63,1.73,9.92,5.13,12.94a14.7,14.7,0,0,0,9.93,3.68,13.85,13.85,0,0,0,10.71-4.63c2.73-3,4.07-7,4.07-12.1,0-5.53-1.68-9.82-5.08-12.83a14.28,14.28,0,0,0-9.93-3.57A13.93,13.93,0,0,0,723.2,206.47Z"/><path class="cls-1" d="M781.42,222.64a17.29,17.29,0,0,0,3,6.92c2.62,3.51,6.36,5.3,11.32,5.3a15.13,15.13,0,0,0,12.78-6.53l1-1.61,9.82,4.07q-8.53,14.39-23.65,14.39a24.29,24.29,0,0,1-19.13-8.42,27.23,27.23,0,0,1-6.81-18.52c0-8.31,2.9-15.17,8.7-20.47a23.64,23.64,0,0,1,16.51-6.42,23.2,23.2,0,0,1,18,8,25.34,25.34,0,0,1,5.46,10.32,34.8,34.8,0,0,1,1.34,9.7c0,.56,0,1.62-.05,3.23Zm27-8.81a20.88,20.88,0,0,0-3.62-7.81,11.75,11.75,0,0,0-9.76-4.57c-6.92,0-12,4.57-13.61,12.38Z"/><path class="cls-1" d="M835,226.55c1.56,3.18,3.06,5.35,4.46,6.52a7.74,7.74,0,0,0,5.3,1.84,6.58,6.58,0,0,0,5.41-2.17,6,6,0,0,0,1.56-4.07,4.47,4.47,0,0,0-.84-2.68c-.61-.84-2.79-2-6.47-3.4l-5.18-2c-7.31-2.84-11-7.36-11-13.61a14.1,14.1,0,0,1,5-11.15,18,18,0,0,1,12.21-4.41q11,0,16.85,11L853.4,207c-2.73-4.07-4.74-5.46-8.09-5.46-3.62,0-6.19,2.06-6.19,5.13a4.58,4.58,0,0,0,.78,2.62c.56.72,2.68,1.84,6.42,3.29l4.68,1.78c8.48,3.3,12.11,7.42,12.11,13.89a15.75,15.75,0,0,1-5.58,12.33,18.71,18.71,0,0,1-12.88,4.63c-9.21,0-15.29-4.74-19.08-14.78Z"/><path class="cls-1" d="M893.1,193v10.26h-8v24.43c0,4.3,1,6.08,3.4,6.08a22.14,22.14,0,0,0,5.35-1v10.65a24.87,24.87,0,0,1-6.91,1.12,12.18,12.18,0,0,1-9.54-4c-2.45-2.73-3.68-7-3.68-12.83V203.23h-5.41V193h5.41V181.76l11.38-4.52V193Z"/><path class="cls-1" d="M902.62,193H914V197a22.22,22.22,0,0,1,5.41-3.45,15,15,0,0,1,5.52-.84,41.21,41.21,0,0,1,4.18.22v10.21c-1.84-.06-3.18-.11-4-.11-4.57,0-7.64,1.5-9.26,4.52-1.28,2.39-1.89,6.24-1.89,11.65v24.38H902.62Z"/><path class="cls-1" d="M947.18,170.77a7.34,7.34,0,0,1,0,10.32,7.26,7.26,0,0,1-5.24,2.12,7.26,7.26,0,0,1-5.19-12.44,7.47,7.47,0,0,1,10.43,0Zm.45,22.2v50.65H936.25V193Z"/><path class="cls-1" d="M1009.26,243.62H997.88v-4.41c-5.13,4-10.32,6-15.61,6a24.07,24.07,0,0,1-12.22-3.41,25.89,25.89,0,0,1-9.81-9.81,27.12,27.12,0,0,1-3.63-13.72,25.86,25.86,0,0,1,8.87-20.14,24.64,24.64,0,0,1,16.79-6.69c5.24,0,10.43,2,15.61,6V193h11.38Zm-37.15-37.09q-4,4.35-4,11.71c0,5.63,1.73,9.92,5.13,12.94a14.52,14.52,0,0,0,9.93,3.68A14.07,14.07,0,0,0,994,230.17q4-4.42,4-12c0-5.53-1.67-9.82-5.07-12.78a14.71,14.71,0,0,0-10-3.62A14.2,14.2,0,0,0,972.11,206.53Z"/><path class="cls-1" d="M1021.51,193h11.38v3.68a17.86,17.86,0,0,1,12.88-5.24,20.65,20.65,0,0,1,14.17,5.24c4.85,4.3,6.86,10,6.86,19.69v27.28h-11.38V217.23q0-7.44-1.84-10.87c-1.62-3-4.57-4.47-8.87-4.47s-8.2,2-9.92,5c-1.29,2.29-1.9,6.08-1.9,11.43v25.33h-11.38Z"/><path class="cls-1" d="M158,328.38a79.66,79.66,0,0,1-79.57-79.56H88.49A69.54,69.54,0,0,0,158,318.28c40.25,0,69.46-26.57,69.46-63.18,0-16.33-5.18-28.73-16.79-40.21-11-10.86-26.69-19.85-44.87-30.27q-5.06-2.9-10.34-6l-1.26-.73c-7.84-4.53-17.6-10.16-17.6-21.62s9-19.77,21.4-19.77a21.42,21.42,0,0,1,21.4,21.4h-10.1a11.31,11.31,0,0,0-11.3-11.3c-5.62,0-11.3,3-11.3,9.67,0,5.24,4.74,8.36,12.55,12.87l1.29.74c3.49,2,6.93,4,10.28,5.92,37.29,21.36,66.75,38.24,66.75,79.25,0,21-8.36,39.93-23.54,53.33C199.42,321.3,179.52,328.38,158,328.38Z"/><path class="cls-1" d="M158,270.22a21.42,21.42,0,0,1-21.4-21.4h10.1a11.3,11.3,0,0,0,22.6,0c0-4.87-3.55-8-13.09-11.63-24.48-9.26-42.47-19.64-55-31.73C86,190.9,78.38,173.17,78.38,152.79c0-21,8.34-40.16,23.49-53.86C116.52,85.68,136.44,78.38,158,78.38A79.67,79.67,0,0,1,237.52,158H227.41A69.54,69.54,0,0,0,158,88.49c-19,0-36.51,6.37-49.3,17.94-13,11.75-20.16,28.22-20.16,46.36,0,17.78,6.43,32.63,19.67,45.4,11.53,11.12,28.4,20.79,51.58,29.55,6.36,2.41,19.61,7.42,19.61,21.08A21.42,21.42,0,0,1,158,270.22Z"/></svg>