<svg id="Layer_1" data-name="Layer 1" xmlns="http://www.w3.org/2000/svg" viewBox="0 0 28 44"><defs><style>.cls-1{fill:#1f2238;}</style></defs><path class="cls-1" d="M14,43.84A13.92,13.92,0,0,1,.1,29.94H1.86A12.16,12.16,0,0,0,14,42.08c7,0,12.14-4.65,12.14-11a9.21,9.21,0,0,0-2.94-7c-1.92-1.9-4.66-3.47-7.84-5.29l-1.8-1-.22-.13c-1.37-.79-3.08-1.77-3.08-3.77A3.48,3.48,0,0,1,14,10.32a3.75,3.75,0,0,1,3.74,3.74H16a2,2,0,0,0-2-2,1.76,1.76,0,0,0-2,1.69c0,.91.82,1.46,2.19,2.25l.22.13,1.8,1C22.76,20.92,27.9,23.87,27.9,31a12.26,12.26,0,0,1-4.11,9.32A14.73,14.73,0,0,1,14,43.84Z"/><path class="cls-1" d="M14,33.68a3.75,3.75,0,0,1-3.74-3.74H12a2,2,0,1,0,3.94,0c0-.85-.62-1.4-2.28-2a27.75,27.75,0,0,1-9.61-5.55,12.37,12.37,0,0,1-4-9.2A12.48,12.48,0,0,1,4.2,3.75,14.49,14.49,0,0,1,14,.16a13.92,13.92,0,0,1,13.9,13.9H26.14A12.16,12.16,0,0,0,14,1.92,12.74,12.74,0,0,0,5.39,5.06a10.73,10.73,0,0,0-3.53,8.1A10.55,10.55,0,0,0,5.3,21.09a26.26,26.26,0,0,0,9,5.17c1.11.42,3.43,1.29,3.43,3.68A3.75,3.75,0,0,1,14,33.68Z"/></svg>