<?xml version="1.0" encoding="utf-8"?>
<!-- Generator: Adobe Illustrator 24.3.0, SVG Export Plug-In . SVG Version: 6.00 Build 0)  -->
<svg version="1.1" id="Layer_1" xmlns="http://www.w3.org/2000/svg" xmlns:xlink="http://www.w3.org/1999/xlink" x="0px" y="0px"
	 viewBox="0 0 176 21" style="enable-background:new 0 0 176 21;" xml:space="preserve">
<style type="text/css">
	.st0{fill:#1F2238;}
</style>
<g>
	<g>
		<path class="st0" d="M20.8,4.3c-0.3-0.5-0.7-0.9-0.9-1.2c-0.5-0.4-1-0.6-1.7-0.6c-0.7,0-1.3,0.2-1.8,0.7c-0.4,0.4-0.5,0.9-0.5,1.4
			c0,0.8,0.6,1.5,1.9,2l1.4,0.5c1.5,0.6,2.6,1.3,3.1,2.2c0.4,0.6,0.6,1.3,0.6,2c0,1.4-0.5,2.6-1.6,3.5c-1,0.9-2.1,1.3-3.5,1.3
			c-1.1,0-2.1-0.3-2.9-0.9c-1-0.7-1.7-1.9-2-3.5l2.3-0.6c0,0.2,0.1,0.3,0.1,0.4c0.2,0.7,0.4,1.2,0.7,1.5c0.5,0.6,1.2,0.9,2,0.9
			c0.8,0,1.5-0.3,2-0.9c0.4-0.5,0.6-1,0.6-1.7c0-0.4-0.1-0.8-0.3-1c-0.3-0.4-1-0.8-2-1.2l-1.4-0.5c-2.2-0.8-3.3-2.2-3.3-4
			c0-1.3,0.5-2.3,1.4-3.1c0.9-0.8,2-1.2,3.3-1.2c1.4,0,2.6,0.5,3.5,1.5c0.3,0.3,0.6,0.7,0.9,1.2L20.8,4.3z"/>
		<path class="st0" d="M34,15.8h-2.3V15c-0.7,0.7-1.6,1-2.6,1c-1.1,0-2-0.3-2.8-1c-1-0.9-1.4-2-1.4-3.9V5.7h2.3v5.3
			c0,1,0.1,1.7,0.4,2.2c0.3,0.6,0.9,0.9,1.8,0.9c0.8,0,1.6-0.4,2-1c0.3-0.5,0.4-1.2,0.4-2.3v-5H34V15.8z"/>
		<path class="st0" d="M36.5,5.7h2.3v0.9c1-0.8,2.1-1.2,3.1-1.2c0.8,0,1.6,0.2,2.4,0.7c0.8,0.5,1.5,1.1,2,2c0.5,0.8,0.7,1.7,0.7,2.7
			c0,1.6-0.6,3-1.8,4c-1,0.9-2.1,1.3-3.3,1.3c-1,0-2.1-0.4-3.1-1.2v6.2h-2.3V5.7z M39.5,8.4c-0.5,0.6-0.8,1.4-0.8,2.4
			c0,1.1,0.3,2,1,2.6c0.5,0.5,1.2,0.7,2,0.7c0.5,0,1.1-0.1,1.5-0.4c1-0.6,1.4-1.5,1.4-2.9c0-1.1-0.3-2-1-2.6c-0.6-0.5-1.2-0.7-2-0.7
			C40.8,7.4,40.1,7.7,39.5,8.4z"/>
		<path class="st0" d="M50.6,11.6c0.1,0.5,0.3,1,0.6,1.4c0.5,0.7,1.3,1.1,2.3,1.1c1.1,0,2-0.5,2.5-1.3l0.2-0.3l2,0.8
			c-1.1,1.9-2.7,2.9-4.7,2.9c-1.6,0-2.8-0.6-3.8-1.7c-0.9-1-1.4-2.3-1.4-3.7c0-1.7,0.6-3,1.7-4.1c0.9-0.9,2-1.3,3.3-1.3
			c1.4,0,2.6,0.5,3.6,1.6c0.5,0.5,0.9,1.2,1.1,2.1c0.2,0.6,0.3,1.3,0.3,1.9c0,0.1,0,0.3,0,0.6H50.6z M55.9,9.8
			c-0.2-0.6-0.4-1.2-0.7-1.6c-0.5-0.6-1.1-0.9-1.9-0.9c-1.4,0-2.4,0.9-2.7,2.5H55.9z"/>
		<path class="st0" d="M60.1,5.7h2.3v0.8c0.4-0.3,0.8-0.6,1.1-0.7c0.3-0.1,0.6-0.2,1.1-0.2c0.2,0,0.5,0,0.8,0v2c-0.4,0-0.6,0-0.8,0
			c-0.9,0-1.5,0.3-1.8,0.9c-0.3,0.5-0.4,1.2-0.4,2.3v4.9h-2.3V5.7z"/>
		<path class="st0" d="M66.8,5.7H69v0.9c1-0.8,2.1-1.2,3.1-1.2c0.8,0,1.6,0.2,2.4,0.7c0.8,0.5,1.5,1.1,2,2c0.5,0.8,0.7,1.7,0.7,2.7
			c0,1.6-0.6,3-1.8,4c-1,0.9-2.1,1.3-3.3,1.3c-1,0-2.1-0.4-3.1-1.2v6.2h-2.3V5.7z M69.8,8.4C69.3,8.9,69,9.7,69,10.8
			c0,1.1,0.3,2,1,2.6c0.5,0.5,1.2,0.7,2,0.7c0.5,0,1.1-0.1,1.5-0.4c1-0.6,1.4-1.5,1.4-2.9c0-1.1-0.3-2-1-2.6c-0.6-0.5-1.2-0.7-2-0.7
			C71.1,7.4,70.4,7.7,69.8,8.4z"/>
		<path class="st0" d="M80.9,11.6c0.1,0.5,0.3,1,0.6,1.4c0.5,0.7,1.3,1.1,2.3,1.1c1.1,0,2-0.5,2.5-1.3l0.2-0.3l2,0.8
			c-1.1,1.9-2.7,2.9-4.7,2.9c-1.6,0-2.8-0.6-3.8-1.7c-0.9-1-1.4-2.3-1.4-3.7c0-1.7,0.6-3,1.7-4.1c0.9-0.9,2-1.3,3.3-1.3
			c1.4,0,2.6,0.5,3.6,1.6C87.6,7.5,88,8.2,88.2,9c0.2,0.6,0.3,1.3,0.3,1.9c0,0.1,0,0.3,0,0.6H80.9z M86.2,9.8
			c-0.2-0.6-0.4-1.2-0.7-1.6c-0.5-0.6-1.1-0.9-1.9-0.9c-1.4,0-2.4,0.9-2.7,2.5H86.2z"/>
		<path class="st0" d="M100.2,15.8H98v-0.9c-1,0.8-2.1,1.2-3.1,1.2c-0.8,0-1.6-0.2-2.4-0.7c-0.8-0.5-1.5-1.1-2-2
			c-0.5-0.8-0.7-1.7-0.7-2.7c0-1.6,0.6-3,1.8-4c1-0.9,2.1-1.3,3.3-1.3c1,0,2.1,0.4,3.1,1.2v-6h2.3V15.8z M92.8,8.4
			C92.3,9,92,9.7,92,10.7c0,1.1,0.3,2,1,2.6c0.6,0.5,1.2,0.7,2,0.7c0.9,0,1.6-0.3,2.1-0.9c0.5-0.6,0.8-1.4,0.8-2.4
			c0-1.1-0.3-2-1-2.6c-0.5-0.5-1.2-0.7-2-0.7C94.1,7.4,93.4,7.7,92.8,8.4z"/>
		<path class="st0" d="M104.4,11.6c0.1,0.5,0.3,1,0.6,1.4c0.5,0.7,1.3,1.1,2.3,1.1c1.1,0,2-0.5,2.5-1.3l0.2-0.3l2,0.8
			c-1.1,1.9-2.7,2.9-4.7,2.9c-1.6,0-2.8-0.6-3.8-1.7c-0.9-1-1.4-2.3-1.4-3.7c0-1.7,0.6-3,1.7-4.1c0.9-0.9,2-1.3,3.3-1.3
			c1.4,0,2.6,0.5,3.6,1.6c0.5,0.5,0.9,1.2,1.1,2.1c0.2,0.6,0.3,1.3,0.3,1.9c0,0.1,0,0.3,0,0.6H104.4z M109.8,9.8
			c-0.2-0.6-0.4-1.2-0.7-1.6c-0.5-0.6-1.1-0.9-1.9-0.9c-1.4,0-2.4,0.9-2.7,2.5H109.8z"/>
		<path class="st0" d="M115.1,12.4c0.3,0.6,0.6,1.1,0.9,1.3c0.3,0.2,0.6,0.4,1.1,0.4c0.5,0,0.8-0.1,1.1-0.4c0.2-0.2,0.3-0.5,0.3-0.8
			c0-0.2-0.1-0.4-0.2-0.5c-0.1-0.2-0.6-0.4-1.3-0.7l-1-0.4c-1.5-0.6-2.2-1.5-2.2-2.7c0-0.9,0.3-1.6,1-2.2c0.7-0.6,1.5-0.9,2.4-0.9
			c1.5,0,2.6,0.7,3.4,2.2l-1.8,0.9c-0.5-0.8-0.9-1.1-1.6-1.1c-0.7,0-1.2,0.4-1.2,1c0,0.2,0.1,0.4,0.2,0.5c0.1,0.1,0.5,0.4,1.3,0.7
			l0.9,0.4c1.7,0.7,2.4,1.5,2.4,2.8c0,1-0.4,1.8-1.1,2.5c-0.7,0.6-1.5,0.9-2.6,0.9c-1.8,0-3-0.9-3.8-2.9L115.1,12.4z"/>
		<path class="st0" d="M126.7,5.7v2h-1.6v4.9c0,0.9,0.2,1.2,0.7,1.2c0.2,0,0.6-0.1,1.1-0.2v2.1c-0.5,0.1-1,0.2-1.4,0.2
			c-0.8,0-1.4-0.3-1.9-0.8c-0.5-0.5-0.7-1.4-0.7-2.6V7.7h-1.1v-2h1.1V3.5l2.3-0.9v3.1H126.7z"/>
		<path class="st0" d="M128.6,5.7h2.3v0.8c0.4-0.3,0.8-0.6,1.1-0.7c0.3-0.1,0.6-0.2,1.1-0.2c0.2,0,0.5,0,0.8,0v2c-0.4,0-0.6,0-0.8,0
			c-0.9,0-1.5,0.3-1.8,0.9c-0.3,0.5-0.4,1.2-0.4,2.3v4.9h-2.3V5.7z"/>
		<path class="st0" d="M137.4,1.3c0.3,0.3,0.4,0.6,0.4,1c0,0.4-0.1,0.8-0.4,1c-0.3,0.3-0.6,0.4-1,0.4c-0.4,0-0.8-0.1-1-0.4
			c-0.3-0.3-0.4-0.6-0.4-1c0-0.4,0.1-0.7,0.4-1c0.3-0.3,0.6-0.4,1-0.4C136.8,0.8,137.1,1,137.4,1.3z M137.5,5.7v10.1h-2.3V5.7H137.5
			z"/>
		<path class="st0" d="M149.8,15.8h-2.3v-0.9c-1,0.8-2.1,1.2-3.1,1.2c-0.8,0-1.6-0.2-2.4-0.7c-0.8-0.5-1.5-1.1-2-2
			c-0.5-0.8-0.7-1.7-0.7-2.7c0-1.6,0.6-3,1.8-4c1-0.9,2.1-1.3,3.3-1.3c1,0,2.1,0.4,3.1,1.2V5.7h2.3V15.8z M142.4,8.4
			c-0.5,0.6-0.8,1.4-0.8,2.3c0,1.1,0.3,2,1,2.6c0.6,0.5,1.2,0.7,2,0.7c0.9,0,1.6-0.3,2.2-0.9c0.5-0.6,0.8-1.4,0.8-2.4
			c0-1.1-0.3-2-1-2.5c-0.5-0.5-1.2-0.7-2-0.7C143.7,7.4,143,7.8,142.4,8.4z"/>
		<path class="st0" d="M152.2,5.7h2.3v0.7c0.7-0.7,1.6-1,2.6-1c1.1,0,2,0.3,2.8,1c1,0.9,1.4,2,1.4,3.9v5.4H159v-5.3
			c0-1-0.1-1.7-0.4-2.2c-0.3-0.6-0.9-0.9-1.8-0.9c-0.9,0-1.6,0.4-2,1c-0.3,0.5-0.4,1.2-0.4,2.3v5h-2.3V5.7z"/>
	</g>
</g>
</svg>
