<?xml version="1.0" encoding="UTF-8"?>
<svg width="176px" height="21px" viewBox="0 0 176 21" version="1.1" xmlns="http://www.w3.org/2000/svg" xmlns:xlink="http://www.w3.org/1999/xlink">
    <!-- Generator: Sketch 42 (36781) - http://www.bohemiancoding.com/sketch -->
    <title>wordmarkweb</title>
    <desc>Created with Sketch.</desc>
    <defs></defs>
    <g id="Symbols" stroke="none" stroke-width="1" fill="none" fill-rule="evenodd">
        <g id="nav-header-1440" transform="translate(-208.000000, -39.000000)" fill="#E2231A">
            <g id="nav-header-desktop-1440">
                <g id="logo" transform="translate(163.000000, 28.000000)">
                    <g id="wordmark" transform="translate(45.000000, 11.000000)">
                        <path d="M0.822727273,13.22475 L2.82818182,13.22475 C2.85727273,14.01125 3.10454545,14.6089167 3.59363636,15.0250833 C4.07545455,15.4430833 4.82818182,15.6539167 5.85181818,15.6539167 C6.32272727,15.6539167 6.73909091,15.5970833 7.09545455,15.4834167 C7.45181818,15.36975 7.75,15.2249167 7.99363636,15.0415833 C8.23363636,14.86375 8.41545455,14.66025 8.53545455,14.42925 C8.65545455,14.1945833 8.71363636,13.96175 8.71363636,13.7289167 C8.71363636,13.3494167 8.64272727,13.0469167 8.50090909,12.8195833 C8.35363636,12.5959167 8.11727273,12.39975 7.78636364,12.2420833 C7.44818182,12.0844167 6.99545455,11.9450833 6.43181818,11.8149167 C5.86818182,11.6884167 5.16272727,11.5289167 4.32636364,11.3400833 C3.84818182,11.23925 3.40818182,11.0870833 3.01181818,10.8890833 C2.61363636,10.6855833 2.27363636,10.43625 1.99363636,10.13925 C1.71363636,9.84408333 1.49727273,9.50308333 1.34636364,9.12358333 C1.19363636,8.74225 1.11909091,8.31141667 1.11909091,7.83841667 C1.11909091,7.39841667 1.20090909,6.95841667 1.37181818,6.52575 C1.53909091,6.09491667 1.81181818,5.70441667 2.19,5.36158333 C2.56272727,5.01325 3.03909091,4.72908333 3.62272727,4.51641667 C4.20454545,4.29825 4.91727273,4.19008333 5.74636364,4.19008333 C6.53909091,4.19008333 7.23363636,4.29275 7.82272727,4.49991667 C8.42090909,4.70708333 8.91545455,5.00225 9.31727273,5.37808333 C9.71727273,5.75391667 10.0190909,6.20491667 10.2263636,6.72558333 C10.4281818,7.24625 10.5427273,7.82375 10.5590909,8.45075 L8.58272727,8.45075 C8.56090909,8.06758333 8.49545455,7.72291667 8.38454545,7.41675 C8.27727273,7.10875 8.10090909,6.84658333 7.85909091,6.63025 C7.61909091,6.41575 7.31,6.25258333 6.93909091,6.13891667 C6.57181818,6.02708333 6.13,5.97391667 5.61181818,5.97391667 C5.15363636,5.97391667 4.77,6.02708333 4.45545455,6.13891667 C4.13363636,6.25075 3.88090909,6.39741667 3.69,6.57891667 C3.49181818,6.75858333 3.34636364,6.96575 3.25727273,7.19858333 C3.17181818,7.42958333 3.12454545,7.66241667 3.12454545,7.89525 C3.12454545,8.32608333 3.22272727,8.64691667 3.41909091,8.86325 C3.61909091,9.08325 3.92090909,9.24641667 4.32636364,9.34725 C4.73,9.44808333 5.21727273,9.57458333 5.78818182,9.72308333 C6.35545455,9.86425 7.02272727,10.0329167 7.78090909,10.2235833 C8.73727273,10.4839167 9.46272727,10.9000833 9.96818182,11.4849167 C10.4718182,12.06975 10.7209091,12.8195833 10.7209091,13.73075 C10.7209091,14.25325 10.61,14.73725 10.3863636,15.1809167 C10.1663636,15.6300833 9.84090909,16.01875 9.42454545,16.35425 C9.00454545,16.6879167 8.49545455,16.9500833 7.89363636,17.14625 C7.29,17.33875 6.61,17.4340833 5.85181818,17.4340833 C4.98272727,17.4340833 4.23909091,17.3295833 3.61909091,17.12425 C2.99545455,16.9189167 2.48090909,16.6255833 2.07545455,16.2534167 C1.66636364,15.88125 1.36090909,15.4339167 1.15909091,14.9169167 C0.95,14.40175 0.842727273,13.8370833 0.822727273,13.22475 Z" id="Fill-1"></path>
                        <path d="M13.5278182,12.49875 L13.5278182,4.37708333 L15.5350909,4.37708333 L15.5350909,12.30075 C15.5350909,12.8984167 15.6114545,13.4025833 15.7714545,13.8260833 C15.9278182,14.2404167 16.1369091,14.5814167 16.3950909,14.8435833 C16.6587273,15.10575 16.966,15.2964167 17.306,15.41925 C17.6514545,15.5420833 18.0078182,15.5970833 18.3732727,15.5970833 C18.8332727,15.5970833 19.2605455,15.5219167 19.646,15.36975 C20.0314545,15.2175833 20.3678182,14.9774167 20.6550909,14.6529167 C20.9332727,14.33025 21.1478182,13.9214167 21.3132727,13.4300833 C21.4787273,12.93875 21.5550909,12.35575 21.5550909,11.6810833 L21.5550909,4.37708333 L23.5587273,4.37708333 L23.5587273,17.2434167 L21.5550909,17.2434167 L21.5550909,15.9454167 C21.1332727,16.4239167 20.6223636,16.7905833 20.0241818,17.04725 C19.4205455,17.3075833 18.7332727,17.4340833 17.9678182,17.4340833 C17.2532727,17.4340833 16.6223636,17.3149167 16.066,17.0839167 C15.5150909,16.8510833 15.0532727,16.51375 14.6823636,16.08475 C14.3041818,15.6539167 14.0205455,15.13325 13.8223636,14.5245833 C13.626,13.9214167 13.5278182,13.2449167 13.5278182,12.49875" id="Fill-3"></path>
                        <path d="M27.2023636,20.8930333 L27.2023636,4.37836667 L29.2041818,4.37836667 L29.2041818,5.83403333 C29.6514545,5.29686667 30.1787273,4.8862 30.7896364,4.6112 C31.4005455,4.32886667 32.0714545,4.18953333 32.8150909,4.18953333 C33.6423636,4.18953333 34.3805455,4.35453333 35.0314545,4.6827 C35.6823636,5.01086667 36.2350909,5.46186667 36.686,6.03753333 C37.1387273,6.61503333 37.4841818,7.29153333 37.7241818,8.06886667 C37.9678182,8.8462 38.0823636,9.6877 38.0823636,10.5842 C38.0823636,11.6108667 37.9732727,12.5403667 37.7405455,13.3800333 C37.5041818,14.2215333 37.1696364,14.9457 36.726,15.5452 C36.286,16.1502 35.7332727,16.6140333 35.0787273,16.9422 C34.4205455,17.2685333 33.6623636,17.4335333 32.8150909,17.4335333 C32.0714545,17.4335333 31.3969091,17.2887 30.7732727,17.0027 C30.1550909,16.7148667 29.6296364,16.2895333 29.2041818,15.7377 L29.2041818,20.8930333 L27.2023636,20.8930333 Z M29.1732727,10.7968667 C29.1732727,12.3625333 29.4750909,13.5450333 30.0714545,14.3462 C30.6696364,15.1455333 31.5405455,15.5452 32.6787273,15.5452 C33.806,15.5452 34.6514545,15.1180333 35.2205455,14.2563667 C35.7950909,13.3965333 36.0805455,12.1920333 36.0805455,10.6355333 C36.0805455,9.95353333 36.0132727,9.33386667 35.8732727,8.77653333 C35.7332727,8.21553333 35.5241818,7.73886667 35.2423636,7.3392 C34.9605455,6.94136667 34.606,6.62603333 34.1769091,6.41153333 C33.7514545,6.18603333 33.2496364,6.07786667 32.6787273,6.07786667 C31.5405455,6.07786667 30.6696364,6.47203333 30.0714545,7.2622 C29.4750909,8.05786667 29.1732727,9.23486667 29.1732727,10.7968667 L29.1732727,10.7968667 Z" id="Fill-5"></path>
                        <path d="M40.2545455,10.8078667 C40.2545455,9.76286667 40.3872727,8.83153333 40.6636364,8.0157 C40.9454545,7.19436667 41.3272727,6.4977 41.82,5.9312 C42.32,5.36653333 42.9,4.93386667 43.5818182,4.63503333 C44.2581818,4.33803333 45.0072727,4.18953333 45.8145455,4.18953333 C46.7309091,4.18953333 47.5327273,4.34903333 48.2145455,4.6717 C48.9018182,4.9907 49.4636364,5.43436667 49.92,6.0027 C50.3763636,6.57103333 50.7090909,7.23836667 50.94,8.01386667 C51.1636364,8.7802 51.2727273,9.6162 51.2727273,10.5163667 C51.2727273,10.6428667 51.2672727,10.7565333 51.2618182,10.8757 C51.2581818,10.9875333 51.2545455,11.0920333 51.2472727,11.1800333 L51.2181818,11.4715333 L42.3127273,11.4715333 C42.3509091,12.2305333 42.4745455,12.8648667 42.6745455,13.3800333 C42.8654545,13.9007 43.12,14.3187 43.4236364,14.6413667 C43.7363636,14.9658667 44.0909091,15.1987 44.4963636,15.3362 C44.9036364,15.4737 45.3418182,15.5452 45.8145455,15.5452 C46.7054545,15.5452 47.4145455,15.3472 47.9327273,14.9493667 C48.4545455,14.5460333 48.8090909,13.9740333 49,13.2242 L51.0327273,13.2242 C50.8963636,13.8805333 50.6836364,14.4690333 50.3854545,14.9860333 C50.0945455,15.5048667 49.7218182,15.9430333 49.2872727,16.3097 C48.8418182,16.6708667 48.3309091,16.9495333 47.7454545,17.1475333 C47.1654545,17.3382 46.5109091,17.4335333 45.7854545,17.4335333 C44.94,17.4335333 44.1781818,17.2832 43.4963636,16.9825333 C42.8090909,16.6818667 42.2309091,16.2455333 41.7490909,15.6863667 C41.2727273,15.1180333 40.8981818,14.4250333 40.6418182,13.6000333 C40.3763636,12.7805333 40.2545455,11.8473667 40.2545455,10.8078667 M42.3636364,9.69503333 L49.2145455,9.69503333 C49.1745455,9.20003333 49.0872727,8.73436667 48.96,8.28886667 C48.8254545,7.84703333 48.6236364,7.45653333 48.3545455,7.1192 C48.0872727,6.7837 47.7454545,6.5142 47.3345455,6.31986667 C46.92,6.12186667 46.4127273,6.02653333 45.8145455,6.02653333 C45.3254545,6.02653333 44.8745455,6.10903333 44.48,6.28686667 C44.0763636,6.45736667 43.7236364,6.69936667 43.4236364,7.01836667 C43.1272727,7.33186667 42.8890909,7.71503333 42.7072727,8.17336667 C42.5218182,8.62986667 42.4109091,9.13953333 42.3636364,9.69503333" id="Fill-7"></path>
                        <path d="M54.1589091,17.24415 L54.1589091,4.37781667 L56.1661818,4.37781667 L56.1661818,6.37615 C56.6207273,5.64831667 57.1534545,5.10015 57.768,4.73531667 C58.3861818,4.37048333 59.0534545,4.18898333 59.7752727,4.18898333 C59.8916364,4.18898333 60.0043636,4.19265 60.1134545,4.20548333 C60.2207273,4.21281667 60.3152727,4.22198333 60.3916364,4.22931667 C60.4916364,4.24948333 60.5789091,4.26048333 60.6625455,4.27331667 L60.6625455,6.37615 L59.9334545,6.37615 C59.4134545,6.37615 58.9225455,6.45681667 58.468,6.61815 C58.0098182,6.78131667 57.6061818,7.03615 57.2698182,7.38815 C56.928,7.73648333 56.6570909,8.18381667 56.4643636,8.72831667 C56.2661818,9.27281667 56.1661818,9.92731667 56.1661818,10.6918167 L56.1661818,17.24415 L54.1589091,17.24415 Z" id="Fill-9"></path>
                        <path d="M62.7172727,20.8930333 L62.7172727,4.37836667 L64.7263636,4.37836667 L64.7263636,5.83403333 C65.17,5.29686667 65.6954545,4.8862 66.3081818,4.6112 C66.9227273,4.32886667 67.5954545,4.18953333 68.3354545,4.18953333 C69.1590909,4.18953333 69.8990909,4.35453333 70.5536364,4.6827 C71.2027273,5.01086667 71.7590909,5.46186667 72.21,6.03753333 C72.6590909,6.61503333 73.0045455,7.29153333 73.2481818,8.06886667 C73.4827273,8.8462 73.6081818,9.6877 73.6081818,10.5842 C73.6081818,11.6108667 73.49,12.5403667 73.2609091,13.3800333 C73.0281818,14.2215333 72.69,14.9457 72.2445455,15.5452 C71.8027273,16.1502 71.2536364,16.6140333 70.6009091,16.9422 C69.9409091,17.2685333 69.1881818,17.4335333 68.3354545,17.4335333 C67.5954545,17.4335333 66.9172727,17.2887 66.2954545,17.0027 C65.6790909,16.7148667 65.1536364,16.2895333 64.7263636,15.7377 L64.7263636,20.8930333 L62.7172727,20.8930333 Z M64.6990909,10.7968667 C64.6990909,12.3625333 64.9990909,13.5450333 65.5954545,14.3462 C66.1918182,15.1455333 67.0645455,15.5452 68.2045455,15.5452 C69.3263636,15.5452 70.1718182,15.1180333 70.7427273,14.2563667 C71.3154545,13.3965333 71.6009091,12.1920333 71.6009091,10.6355333 C71.6009091,9.95353333 71.5336364,9.33386667 71.3918182,8.77653333 C71.2536364,8.21553333 71.0427273,7.73886667 70.7627273,7.3392 C70.4827273,6.94136667 70.1318182,6.62603333 69.7009091,6.41153333 C69.27,6.18603333 68.77,6.07786667 68.2045455,6.07786667 C67.0645455,6.07786667 66.1918182,6.47203333 65.5954545,7.2622 C64.9990909,8.05786667 64.6990909,9.23486667 64.6990909,10.7968667 L64.6990909,10.7968667 Z" id="Fill-11"></path>
                        <path d="M75.7747273,10.8078667 C75.7747273,9.76286667 75.9129091,8.83153333 76.1910909,8.0157 C76.462,7.19436667 76.8492727,6.4977 77.3456364,5.9312 C77.8383636,5.36653333 78.4256364,4.93386667 79.1038182,4.63503333 C79.7801818,4.33803333 80.522,4.18953333 81.3383636,4.18953333 C82.2510909,4.18953333 83.0565455,4.34903333 83.7347273,4.6717 C84.4183636,4.9907 84.9892727,5.43436667 85.4365455,6.0027 C85.8983636,6.57103333 86.2347273,7.23836667 86.4583636,8.01386667 C86.6801818,8.7802 86.7947273,9.6162 86.7947273,10.5163667 C86.7947273,10.6428667 86.7947273,10.7565333 86.7874545,10.8757 C86.7801818,10.9875333 86.7747273,11.0920333 86.7674545,11.1800333 L86.742,11.4715333 L77.8292727,11.4715333 C77.8783636,12.2305333 77.9947273,12.8648667 78.1929091,13.3800333 C78.3929091,13.9007 78.6438182,14.3187 78.9438182,14.6413667 C79.2583636,14.9658667 79.6110909,15.1987 80.0165455,15.3362 C80.4238182,15.4737 80.862,15.5452 81.3383636,15.5452 C82.2274545,15.5452 82.9329091,15.3472 83.4565455,14.9493667 C83.9783636,14.5460333 84.3292727,13.9740333 84.522,13.2242 L86.5510909,13.2242 C86.4165455,13.8805333 86.2056364,14.4690333 85.9092727,14.9860333 C85.6201818,15.5048667 85.2492727,15.9430333 84.8074545,16.3097 C84.3674545,16.6708667 83.8492727,16.9495333 83.2710909,17.1475333 C82.6874545,17.3382 82.0310909,17.4335333 81.3056364,17.4335333 C80.462,17.4335333 79.6983636,17.2832 79.0129091,16.9825333 C78.3329091,16.6818667 77.7547273,16.2455333 77.2692727,15.6863667 C76.7892727,15.1180333 76.4183636,14.4250333 76.1638182,13.6000333 C75.9056364,12.7805333 75.7747273,11.8473667 75.7747273,10.8078667 M77.8856364,9.69503333 L84.7310909,9.69503333 C84.6947273,9.20003333 84.6110909,8.73436667 84.4801818,8.28886667 C84.3474545,7.84703333 84.1456364,7.45653333 83.8783636,7.1192 C83.6129091,6.7837 83.2710909,6.5142 82.8565455,6.31986667 C82.442,6.12186667 81.9383636,6.02653333 81.3383636,6.02653333 C80.842,6.02653333 80.4001818,6.10903333 79.9965455,6.28686667 C79.5965455,6.45736667 79.2438182,6.69936667 78.9438182,7.01836667 C78.6510909,7.33186667 78.4092727,7.71503333 78.2292727,8.17336667 C78.042,8.62986667 77.9310909,9.13953333 77.8856364,9.69503333" id="Fill-13"></path>
                        <path d="M88.9318182,10.5840167 C88.9318182,9.68751667 89.0518182,8.84418333 89.2936364,8.06135 C89.5354545,7.27851667 89.8827273,6.60751667 90.3427273,6.03001667 C90.8063636,5.45801667 91.3754545,5.01251667 92.0445455,4.68251667 C92.7154545,4.35435 93.4790909,4.18935 94.3427273,4.18935 C95.7263636,4.18935 96.8627273,4.70268333 97.7481818,5.72935 L97.7481818,0.216516667 L99.7518182,0.216516667 L99.7518182,17.2445167 L97.7481818,17.2445167 L97.7481818,15.76135 C97.3172727,16.28935 96.8027273,16.7036833 96.1954545,16.9970167 C95.5845455,17.2866833 94.93,17.43335 94.2354545,17.43335 C93.39,17.43335 92.6390909,17.26835 91.9863636,16.9420167 C91.3245455,16.61385 90.7681818,16.1500167 90.3227273,15.54685 C89.8681818,14.9455167 89.5209091,14.22135 89.2863636,13.3816833 C89.0518182,12.5401833 88.9318182,11.6106833 88.9318182,10.5840167 M90.9354545,10.63535 C90.9354545,12.19185 91.23,13.39635 91.8063636,14.2561833 C92.39,15.11785 93.2427273,15.54685 94.37,15.54685 C95.5045455,15.54685 96.3663636,15.14535 96.9463636,14.3460167 C97.5354545,13.54485 97.8281818,12.36235 97.8281818,10.7966833 C97.8281818,7.65251667 96.6972727,6.07768333 94.4227273,6.07768333 C93.83,6.07768333 93.3154545,6.18585 92.8827273,6.40218333 C92.4427273,6.61851667 92.0845455,6.92651667 91.7936364,7.32618333 C91.51,7.72585 91.2954545,8.20801667 91.1536364,8.76718333 C91.01,9.33185 90.9354545,9.95335 90.9354545,10.63535" id="Fill-15"></path>
                        <path d="M102.651636,10.8078667 C102.651636,9.76286667 102.795273,8.83153333 103.069818,8.0157 C103.346182,7.19436667 103.731636,6.4977 104.228,5.9312 C104.724364,5.36653333 105.304364,4.93386667 105.988,4.63503333 C106.664364,4.33803333 107.406182,4.18953333 108.217091,4.18953333 C109.133455,4.18953333 109.938909,4.34903333 110.620727,4.6717 C111.306182,4.9907 111.869818,5.43436667 112.326182,6.0027 C112.778909,6.57103333 113.120727,7.23836667 113.338909,8.01386667 C113.566182,8.7802 113.675273,9.6162 113.675273,10.5163667 C113.675273,10.6428667 113.675273,10.7565333 113.666182,10.8757 C113.662545,10.9875333 113.658909,11.0920333 113.651636,11.1800333 L113.620727,11.4715333 L104.717091,11.4715333 C104.758909,12.2305333 104.878909,12.8648667 105.077091,13.3800333 C105.269818,13.9007 105.524364,14.3187 105.835273,14.6413667 C106.137091,14.9658667 106.495273,15.1987 106.902545,15.3362 C107.308,15.4737 107.746182,15.5452 108.217091,15.5452 C109.109818,15.5452 109.813455,15.3472 110.337091,14.9493667 C110.858909,14.5460333 111.211636,13.9740333 111.400727,13.2242 L113.435273,13.2242 C113.298909,13.8805333 113.088,14.4690333 112.791636,14.9860333 C112.498909,15.5048667 112.133455,15.9430333 111.688,16.3097 C111.249818,16.6708667 110.735273,16.9495333 110.155273,17.1475333 C109.568,17.3382 108.915273,17.4335333 108.197091,17.4335333 C107.346182,17.4335333 106.582545,17.2832 105.898909,16.9825333 C105.215273,16.6818667 104.637091,16.2455333 104.153455,15.6863667 C103.675273,15.1180333 103.306182,14.4250333 103.044364,13.6000333 C102.786182,12.7805333 102.651636,11.8473667 102.651636,10.8078667 M104.771636,9.69503333 L111.620727,9.69503333 C111.580727,9.20003333 111.498909,8.73436667 111.360727,8.28886667 C111.228,7.84703333 111.028,7.45653333 110.764364,7.1192 C110.493455,6.7837 110.155273,6.5142 109.735273,6.31986667 C109.328,6.12186667 108.815273,6.02653333 108.217091,6.02653333 C107.729818,6.02653333 107.286182,6.10903333 106.882545,6.28686667 C106.478909,6.45736667 106.131636,6.69936667 105.835273,7.01836667 C105.535273,7.33186667 105.293455,7.71503333 105.113455,8.17336667 C104.926182,8.62986667 104.813455,9.13953333 104.771636,9.69503333" id="Fill-17"></path>
                        <path d="M115.842182,13.22475 L117.849455,13.22475 C117.873091,14.01125 118.133091,14.6089167 118.607636,15.0250833 C119.093091,15.4430833 119.849455,15.6539167 120.873091,15.6539167 C121.342182,15.6539167 121.754909,15.5970833 122.114909,15.4834167 C122.473091,15.36975 122.773091,15.2249167 123.004,15.0415833 C123.253091,14.86375 123.431273,14.66025 123.556727,14.42925 C123.673091,14.1945833 123.738545,13.96175 123.738545,13.7289167 C123.738545,13.3494167 123.665818,13.0469167 123.518545,12.8195833 C123.374909,12.5959167 123.138545,12.39975 122.798545,12.2420833 C122.471273,12.0844167 122.016727,11.9450833 121.449455,11.8149167 C120.882182,11.6884167 120.185818,11.5289167 119.347636,11.3400833 C118.862182,11.23925 118.424,11.0870833 118.027636,10.8890833 C117.636727,10.6855833 117.293091,10.43625 117.014909,10.13925 C116.733091,9.84408333 116.513091,9.50308333 116.362182,9.12358333 C116.209455,8.74225 116.138545,8.31141667 116.138545,7.83841667 C116.138545,7.39841667 116.218545,6.95841667 116.394909,6.52575 C116.562182,6.09491667 116.833091,5.70441667 117.207636,5.36158333 C117.580364,5.01325 118.060364,4.72908333 118.642182,4.51641667 C119.225818,4.29825 119.934909,4.19008333 120.765818,4.19008333 C121.560364,4.19008333 122.251273,4.29275 122.844,4.49991667 C123.434909,4.70708333 123.934909,5.00225 124.336727,5.37808333 C124.740364,5.75391667 125.040364,6.20491667 125.247636,6.72558333 C125.449455,7.24625 125.560364,7.82375 125.578545,8.45075 L123.602182,8.45075 C123.580364,8.06758333 123.518545,7.72291667 123.404,7.41675 C123.298545,7.10875 123.113091,6.84658333 122.878545,6.63025 C122.636727,6.41575 122.331273,6.25258333 121.958545,6.13891667 C121.587636,6.02708333 121.147636,5.97391667 120.629455,5.97391667 C120.176727,5.97391667 119.785818,6.02708333 119.469455,6.13891667 C119.156727,6.25075 118.904,6.39741667 118.704,6.57891667 C118.507636,6.75858333 118.369455,6.96575 118.276727,7.19858333 C118.184,7.42958333 118.145818,7.66241667 118.145818,7.89525 C118.145818,8.32608333 118.244,8.64691667 118.436727,8.86325 C118.634909,9.08325 118.938545,9.24641667 119.342182,9.34725 C119.744,9.44808333 120.240364,9.57458333 120.807636,9.72308333 C121.378545,9.86425 122.042182,10.0329167 122.798545,10.2235833 C123.756727,10.4839167 124.480364,10.9000833 124.980364,11.4849167 C125.487636,12.06975 125.736727,12.8195833 125.736727,13.73075 C125.736727,14.25325 125.627636,14.73725 125.407636,15.1809167 C125.180364,15.6300833 124.862182,16.01875 124.440364,16.35425 C124.022182,16.6879167 123.514909,16.9500833 122.911273,17.14625 C122.311273,17.33875 121.629455,17.4340833 120.873091,17.4340833 C120.002182,17.4340833 119.256727,17.3295833 118.634909,17.12425 C118.013091,16.9189167 117.502182,16.6255833 117.091273,16.2534167 C116.685818,15.88125 116.382182,15.4339167 116.174909,14.9169167 C115.969455,14.40175 115.858545,13.8370833 115.842182,13.22475" id="Fill-19"></path>
                        <path d="M127.589455,6.21463333 L127.589455,4.37763333 L129.645818,4.37763333 L129.645818,0.298466667 L131.649455,0.298466667 L131.649455,4.37763333 L134.620364,4.37763333 L134.620364,6.21463333 L131.649455,6.21463333 L131.649455,14.1419667 C131.649455,14.4573 131.694909,14.7048 131.784,14.8918 C131.869455,15.0733 131.998545,15.2163 132.160364,15.3061333 C132.324,15.4033 132.502182,15.4656333 132.720364,15.5004667 C132.931273,15.5298 133.164,15.5463 133.414909,15.5463 L134.142182,15.5463 L134.142182,17.2439667 C134.004,17.2623 133.867636,17.2769667 133.724,17.2843 C133.602182,17.3044667 133.465818,17.3118 133.327636,17.3173 C133.189455,17.3228 133.058545,17.3246333 132.931273,17.3246333 C132.538545,17.3246333 132.149455,17.2824667 131.760364,17.1981333 C131.362182,17.1119667 131.011273,16.9488 130.700364,16.7068 C130.384,16.4611333 130.136727,16.1238 129.938545,15.6856333 C129.745818,15.2511333 129.645818,14.6791333 129.645818,13.9806333 L129.645818,6.21463333 L127.589455,6.21463333 Z" id="Fill-21"></path>
                        <path d="M137.264545,17.24415 L137.264545,4.37781667 L139.275455,4.37781667 L139.275455,6.37615 C139.728182,5.64831667 140.264545,5.10015 140.879091,4.73531667 C141.493636,4.37048333 142.164545,4.18898333 142.884545,4.18898333 C142.999091,4.18898333 143.113636,4.19265 143.215455,4.20548333 C143.33,4.21281667 143.419091,4.22198333 143.500909,4.22931667 C143.599091,4.24948333 143.688182,4.26048333 143.768182,4.27331667 L143.768182,6.37615 L143.05,6.37615 C142.519091,6.37615 142.03,6.45681667 141.573636,6.61815 C141.119091,6.78131667 140.719091,7.03615 140.375455,7.38815 C140.031818,7.73648333 139.766364,8.18381667 139.566364,8.72831667 C139.368182,9.27281667 139.275455,9.92731667 139.275455,10.6918167 L139.275455,17.24415 L137.264545,17.24415 Z" id="Fill-23"></path>
                        <polygon id="Fill-25" points="145.881818 17.2448833 147.883636 17.2448833 147.883636 4.37855 145.881818 4.37855"></polygon>
                        <path d="M150.86,10.5840167 C150.86,9.72235 150.972727,8.90101667 151.216364,8.12735 C151.450909,7.35551667 151.807273,6.67901667 152.272727,6.09418333 C152.74,5.50568333 153.316364,5.04551667 153.990909,4.70268333 C154.678182,4.36168333 155.449091,4.18935 156.32,4.18935 C156.961818,4.18935 157.563636,4.31035 158.121818,4.54868333 C158.678182,4.78518333 159.169091,5.11885 159.590909,5.53868333 L159.590909,4.37818333 L161.592727,4.37818333 L161.592727,14.6265167 C161.592727,14.9766833 161.705455,15.22235 161.923636,15.3506833 C162.141818,15.4790167 162.432727,15.54685 162.8,15.54685 L163.096364,15.54685 L163.096364,17.2445167 C163.021818,17.26285 162.943636,17.2756833 162.856364,17.28485 C162.692727,17.3105167 162.481818,17.3251833 162.212727,17.3251833 C161.930909,17.3251833 161.669091,17.2976833 161.414545,17.2445167 C161.16,17.19135 160.927273,17.1051833 160.712727,16.98235 C160.5,16.86135 160.310909,16.69635 160.154545,16.49835 C160,16.29485 159.883636,16.04735 159.8,15.76135 C159.614545,16.0235167 159.387273,16.2526833 159.121818,16.4580167 C158.852727,16.65785 158.558182,16.83385 158.241818,16.98235 C157.927273,17.13085 157.585455,17.2426833 157.232727,17.31785 C156.872727,17.39485 156.516364,17.43335 156.156364,17.43335 C155.292727,17.43335 154.538182,17.2665167 153.88,16.93835 C153.225455,16.5991833 152.669091,16.1335167 152.22,15.5340167 C151.772727,14.9345167 151.430909,14.21035 151.201818,13.36885 C150.972727,12.52735 150.86,11.5996833 150.86,10.5840167 M152.863636,10.63535 C152.863636,12.2120167 153.149091,13.4201833 153.72,14.2726833 C154.290909,15.1215167 155.149091,15.54685 156.290909,15.54685 C156.84,15.54685 157.325455,15.4460167 157.754545,15.2480167 C158.18,15.0536833 158.547273,14.75485 158.847273,14.3661833 C159.145455,13.97385 159.376364,13.48435 159.538182,12.89035 C159.692727,12.29635 159.776364,11.5996833 159.776364,10.7966833 C159.776364,9.19618333 159.490909,8.01368333 158.918182,7.23818333 C158.347273,6.46268333 157.514545,6.07768333 156.425455,6.07768333 C155.825455,6.07768333 155.303636,6.18585 154.86,6.40218333 C154.410909,6.61851667 154.04,6.92468333 153.749091,7.31885 C153.450909,7.71301667 153.232727,8.19151667 153.083636,8.75435 C152.938182,9.31535 152.863636,9.94418333 152.863636,10.63535" id="Fill-27"></path>
                        <path d="M165.542182,17.24415 L165.542182,4.37781667 L167.547636,4.37781667 L167.547636,5.65198333 C168.393091,4.67848333 169.589455,4.18898333 171.129455,4.18898333 C171.844,4.18898333 172.474909,4.30631667 173.025818,4.53915 C173.585818,4.77381667 174.051273,5.10748333 174.422182,5.53831667 C174.793091,5.97465 175.080364,6.48798333 175.276727,7.09665 C175.473091,7.70348333 175.573091,8.37998333 175.573091,9.12798333 L175.573091,17.24415 L173.565818,17.24415 L173.565818,9.32598333 C173.565818,8.72831667 173.491273,8.22231667 173.329455,7.80248333 C173.174909,7.38265 172.962182,7.04531667 172.702182,6.78131667 C172.444,6.52098333 172.134909,6.32848333 171.793091,6.20748333 C171.449455,6.08648333 171.098545,6.02598333 170.731273,6.02598333 C170.269455,6.02598333 169.840364,6.10298333 169.451273,6.25331667 C169.060364,6.40915 168.729455,6.64565 168.449455,6.97198333 C168.165818,7.29465 167.945818,7.70348333 167.787636,8.19115 C167.629455,8.68615 167.547636,9.26915 167.547636,9.94565 L167.547636,17.24415 L165.542182,17.24415 Z" id="Fill-28"></path>
                    </g>
                </g>
            </g>
        </g>
    </g>
</svg>